<svg width="48" height="48" viewBox="0 0 48 48" fill="none" xmlns="http://www.w3.org/2000/svg">
  <rect width="48" height="48" rx="12" fill="#3b82f6" fill-opacity="0.1" />
  <path
    d="M24 12C17.3726 12 12 17.3726 12 24C12 30.6274 17.3726 36 24 36C30.6274 36 36 30.6274 36 24C36 17.3726 30.6274 12 24 12ZM24 14C29.5467 14 34 18.4533 34 24C34 29.5467 29.5467 34 24 34C18.4533 34 14 29.5467 14 24C14 18.4533 18.4533 14 24 14Z"
    fill="#3b82f6" />
  <path d="M18 24L22 28L30 20" stroke="#3b82f6" stroke-width="2.5" stroke-linecap="round" stroke-linejoin="round" />
  <circle cx="24" cy="24" r="3" fill="#3b82f6" />
  <circle cx="24" cy="24" r="2" fill="white" />
</svg>